<svg xmlns="http://www.w3.org/2000/svg" viewBox="0 0 800 600" preserveAspectRatio="xMidYMid slice">
  <defs>
    <radialGradient id="bgconsole1" cx="50%" cy="28%" r="80%">
      <stop offset="0" stop-color="#ffffff" stop-opacity="0.9"/>
      <stop offset="1" stop-color="#ecedf4" stop-opacity="0"/>
    </radialGradient>
    <linearGradient id="baseconsole1" x1="0" y1="0" x2="0" y2="1"><stop offset="0" stop-color="#ecedf4"/><stop offset="1" stop-color="#dcdeea"/></linearGradient>
    <linearGradient id="floorconsole1" x1="0" y1="0" x2="0" y2="1"><stop offset="0" stop-color="#dcdeea"/><stop offset="1" stop-color="#dcdeea"/></linearGradient>
    <filter id="blur" x="-20%" y="-200%" width="140%" height="500%"><feGaussianBlur stdDeviation="10"/></filter>
  </defs>
  <rect x="-200" y="-200" width="1200" height="1000" fill="url(#baseconsole1)"/>
  <rect x="-200" y="-200" width="1200" height="1000" fill="url(#bgconsole1)"/>
  <rect x="-200" y="440" width="1200" height="400" fill="url(#floorconsole1)" opacity="0.45"/>
  
      <defs>
        <linearGradient id="console1shell" x1="0" y1="0" x2="1" y2="0"><stop offset="0" stop-color="#ffffff"/><stop offset="1" stop-color="#dde1e8"/></linearGradient>
        <linearGradient id="console1core" x1="0" y1="0" x2="0" y2="1"><stop offset="0" stop-color="#1a1c22"/><stop offset="1" stop-color="#0b0c10"/></linearGradient>
        <linearGradient id="console1pad" x1="0" y1="0" x2="0" y2="1"><stop offset="0" stop-color="#f8f9fb"/><stop offset="1" stop-color="#cfd4dc"/></linearGradient>
      </defs>
      <ellipse cx="400" cy="470" rx="280" ry="14" fill="#0b1220" opacity="0.28" filter="url(#blur)"/>
      <path d="M440 92 q30 -6 40 20 l22 330 q2 18 -20 20 h-30Z" fill="url(#console1shell)"/>
      <rect x="420" y="96" width="50" height="362" rx="10" fill="url(#console1core)"/>
      <path d="M420 92 q-30 -6 -40 20 l-22 330 q-2 18 20 20 h42Z" fill="url(#console1shell)"/>
      <rect x="443" y="110" width="4" height="330" rx="2" fill="#60a5fa" opacity=".7"/>
      <path d="M170 360 q10 -48 60 -52 h120 q50 4 60 52 l14 60 q6 34 -26 36 q-22 2 -40 -26 l-14 -20 h-108 l-14 20 q-18 28 -40 26 q-32 -2 -26 -36Z" fill="url(#console1pad)"/>
      <circle cx="232" cy="362" r="16" fill="#2b2f37"/><circle cx="348" cy="394" r="16" fill="#2b2f37"/>
      <circle cx="372" cy="340" r="6" fill="#64748b"/><circle cx="388" cy="354" r="6" fill="#64748b"/><circle cx="356" cy="354" r="6" fill="#64748b"/><circle cx="372" cy="368" r="6" fill="#64748b"/>
      <rect x="276" y="330" width="28" height="14" rx="4" fill="#94a3b8"/>
</svg>